<svg xmlns="http://www.w3.org/2000/svg" width="480" height="960" viewBox="0 0 480 960" font-family="'Inter',system-ui,sans-serif">
  <defs>
    <linearGradient id="bg" x1="0" y1="0" x2="1" y2="1">
      <stop offset="0" stop-color="#F5F5F5"/>
      <stop offset="1" stop-color="#EDEDEF"/>
    </linearGradient>
  </defs>
  <rect x="20" y="10" width="440" height="940" rx="48" fill="#0F0F10"/>
  <rect x="34" y="24" width="412" height="912" rx="38" fill="url(#bg)"/>
  <text x="52" y="60" font-size="20" fill="#111" font-weight="700">9:41</text>
  <rect x="52" y="92" width="40" height="40" rx="12" fill="#111" opacity="0.06"/>
  <text x="72" y="118" font-size="20" fill="#111">←</text>
  <rect x="110" y="100" width="140" height="12" rx="6" fill="#111"/>
  <rect x="110" y="120" width="90" height="8" rx="4" fill="#111" opacity="0.3"/>
  <!-- bus card -->
  <rect x="52" y="170" width="376" height="120" rx="24" fill="#fff"/>
  <rect x="76" y="194" width="80" height="10" rx="5" fill="#C1121F"/>
  <rect x="76" y="216" width="200" height="16" rx="8" fill="#111"/>
  <rect x="76" y="246" width="160" height="9" rx="4.5" fill="#111" opacity="0.3"/>
  <text x="380" y="250" font-size="40" fill="#111" opacity="0.9">🚌</text>
  <!-- seat map -->
  <rect x="52" y="310" width="376" height="420" rx="24" fill="#fff"/>
  <rect x="76" y="334" width="90" height="10" rx="5" fill="#111" opacity="0.5"/>
  <g>
    <rect x="110" y="360" width="52" height="44" rx="12" fill="#C1121F"/>
    <rect x="176" y="360" width="52" height="44" rx="12" fill="#C1121F"/>
    <rect x="110" y="418" width="52" height="44" rx="12" fill="#111"/>
    <rect x="176" y="418" width="52" height="44" rx="12" fill="#fff" stroke="#111" stroke-opacity="0.2"/>
    <rect x="110" y="476" width="52" height="44" rx="12" fill="#111"/>
    <rect x="176" y="476" width="52" height="44" rx="12" fill="#fff" stroke="#111" stroke-opacity="0.2"/>
    <rect x="110" y="534" width="52" height="44" rx="12" fill="#fff" stroke="#111" stroke-opacity="0.2"/>
    <rect x="176" y="534" width="52" height="44" rx="12" fill="#fff" stroke="#111" stroke-opacity="0.2"/>
    <rect x="110" y="592" width="52" height="44" rx="12" fill="#fff" stroke="#111" stroke-opacity="0.2"/>
    <rect x="176" y="592" width="52" height="44" rx="12" fill="#fff" stroke="#111" stroke-opacity="0.2"/>
    <rect x="252" y="360" width="52" height="44" rx="12" fill="#C1121F" opacity="0.35"/>
    <rect x="318" y="360" width="52" height="44" rx="12" fill="#C1121F" opacity="0.35"/>
    <rect x="252" y="418" width="52" height="44" rx="12" fill="#fff" stroke="#111" stroke-opacity="0.2"/>
    <rect x="318" y="418" width="52" height="44" rx="12" fill="#fff" stroke="#111" stroke-opacity="0.2"/>
    <rect x="252" y="476" width="52" height="44" rx="12" fill="#fff" stroke="#111" stroke-opacity="0.2"/>
    <rect x="318" y="476" width="52" height="44" rx="12" fill="#fff" stroke="#111" stroke-opacity="0.2"/>
    <rect x="252" y="534" width="52" height="44" rx="12" fill="#fff" stroke="#111" stroke-opacity="0.2"/>
    <rect x="318" y="534" width="52" height="44" rx="12" fill="#fff" stroke="#111" stroke-opacity="0.2"/>
    <rect x="252" y="592" width="52" height="44" rx="12" fill="#fff" stroke="#111" stroke-opacity="0.2"/>
    <rect x="318" y="592" width="52" height="44" rx="12" fill="#fff" stroke="#111" stroke-opacity="0.2"/>
  </g>
  <!-- legend -->
  <circle cx="96" cy="668" r="9" fill="#C1121F"/><text x="112" y="673" font-size="14" fill="#555">Terpilih</text>
  <circle cx="180" cy="668" r="9" fill="#111"/><text x="196" y="673" font-size="14" fill="#555">Kursi supir</text>
  <circle cx="286" cy="668" r="9" fill="#fff" stroke="#111" stroke-opacity="0.3"/><text x="302" y="673" font-size="14" fill="#555">Tersedia</text>
  <!-- summary -->
  <rect x="52" y="750" width="376" height="80" rx="20" fill="#111"/>
  <rect x="76" y="774" width="120" height="10" rx="5" fill="#fff" opacity="0.6"/>
  <rect x="76" y="798" width="80" height="10" rx="5" fill="#fff" opacity="0.35"/>
  <rect x="300" y="764" width="104" height="52" rx="16" fill="#C1121F"/>
  <text x="352" y="796" font-size="16" fill="#fff" text-anchor="middle" font-weight="700">Lanjut</text>
  <text x="240" y="30" font-size="18" fill="#fff" text-anchor="middle" letter-spacing="2" opacity="0.85">PLACEHOLDER MOCKUP</text>
</svg>
